<?xml version="1.0" encoding="UTF-8"?>
<svg xmlns="http://www.w3.org/2000/svg" xmlns:xlink="http://www.w3.org/1999/xlink" width="1030px" height="316px" viewBox="0 0 257 79" version="1.1">
<g id="surface1">
<path style=" stroke:none;fill-rule:nonzero;fill:rgb(97.647059%,2.352941%,2.352941%);fill-opacity:1;" d="M 126.503906 51.199219 C 130.421875 51.050781 134.464844 51.050781 138.53125 51.023438 C 139.277344 51.023438 140.027344 50.875 140.777344 51 C 141.175781 51.074219 141.351562 51.273438 141.324219 51.648438 C 141.324219 52.023438 141.324219 52.425781 141.273438 52.800781 C 141.175781 53.398438 140.851562 53.75 140.175781 53.773438 C 137.757812 53.875 135.335938 54.101562 132.890625 54.125 C 129.523438 54.148438 126.179688 54.523438 122.835938 54.75 C 120.765625 54.898438 118.667969 54.949219 116.625 55.199219 C 113.878906 55.523438 111.132812 55.601562 108.390625 55.949219 C 106.59375 56.175781 104.796875 56.351562 103.023438 56.574219 C 101.203125 56.800781 99.355469 56.925781 97.558594 57.25 C 96.089844 57.523438 94.566406 57.699219 93.070312 57.898438 C 91.546875 58.101562 90.050781 58.398438 88.527344 58.625 C 87.304688 58.800781 86.082031 59.050781 84.886719 59.273438 C 82.738281 59.675781 80.59375 60.050781 78.472656 60.476562 C 76.726562 60.824219 75.003906 61.25 73.234375 61.5 C 72.734375 61.574219 72.210938 61.800781 71.808594 62.25 C 71.238281 62.925781 70.363281 63.050781 69.589844 63.101562 C 67.445312 63.226562 65.324219 63.550781 63.175781 63.800781 C 61.03125 64.023438 58.859375 64.175781 56.714844 64.523438 C 55.117188 64.773438 53.519531 65.050781 51.898438 65.101562 C 51.074219 65.125 50.253906 65.300781 49.554688 65.824219 C 49.480469 65.875 49.378906 65.925781 49.277344 65.925781 C 46.160156 66.375 43.066406 66.976562 39.871094 66.898438 C 38.648438 66.875 37.601562 66.375 36.453125 66.148438 C 35.65625 66 34.855469 65.648438 34.058594 65.523438 C 33.261719 65.398438 32.488281 65.125 31.714844 64.898438 C 30.367188 64.476562 28.992188 64.175781 27.621094 63.773438 C 26.449219 63.425781 25.199219 63.300781 24.003906 63 C 22.28125 62.574219 20.558594 62.300781 18.839844 62 C 16.890625 61.675781 14.972656 61.175781 13 60.949219 C 12.726562 60.925781 12.449219 60.851562 12.152344 60.800781 C 12 60.773438 11.875 60.699219 11.875 60.523438 C 11.875 60.351562 12.027344 60.273438 12.152344 60.25 C 12.5 60.175781 12.824219 60.101562 13.175781 60.101562 C 15.621094 60 18.015625 59.574219 20.410156 59.324219 C 22.53125 59.101562 24.628906 58.824219 26.746094 58.625 C 29.144531 58.375 31.539062 58.148438 33.933594 57.875 C 35.90625 57.648438 37.875 57.476562 39.847656 57.226562 C 42.167969 56.949219 44.488281 56.675781 46.785156 56.5 C 48.804688 56.351562 50.824219 56.101562 52.820312 55.898438 C 54.59375 55.726562 56.367188 55.601562 58.136719 55.273438 C 59.335938 55.050781 60.558594 55.175781 61.78125 54.949219 C 63.050781 54.726562 64.375 54.726562 65.648438 54.601562 C 69.363281 54.175781 73.132812 54.074219 76.851562 53.800781 C 79.59375 53.625 82.339844 53.300781 85.085938 53.175781 C 87.355469 53.074219 89.601562 52.851562 91.871094 52.648438 C 93.09375 52.550781 94.339844 52.425781 95.5625 52.398438 C 99.730469 52.273438 103.898438 51.976562 108.089844 51.824219 C 112.230469 51.675781 116.347656 51.449219 120.492188 51.375 C 122.460938 51.375 124.40625 51.148438 126.503906 51.199219 Z M 126.503906 51.199219 "/>
<path style=" stroke:none;fill-rule:nonzero;fill:rgb(98.823529%,98.823529%,98.431373%);fill-opacity:1;" d="M 53.597656 14.101562 C 55.265625 14.101562 56.9375 14.175781 58.585938 14.074219 C 60.707031 13.949219 61.582031 15.675781 61.355469 17.324219 C 61.15625 18.75 61.007812 20.175781 60.882812 21.625 C 60.808594 22.699219 60.882812 23.773438 60.582031 24.824219 C 60.359375 25.648438 59.957031 26.398438 59.507812 27.148438 C 56.015625 33.023438 52.523438 38.898438 49.03125 44.773438 C 48.582031 45.523438 48.082031 46.25 47.632812 46.976562 C 47.558594 47.074219 47.382812 47.175781 47.484375 47.351562 C 47.582031 47.523438 47.78125 47.476562 47.933594 47.449219 C 49.503906 47.375 51.027344 47.101562 52.574219 46.898438 C 54.320312 46.675781 56.089844 46.550781 57.835938 46.425781 C 58.1875 46.398438 58.335938 46.574219 58.285156 46.898438 C 58.0625 48.476562 58.085938 50.074219 57.8125 51.625 C 57.761719 51.949219 57.5625 52.074219 57.238281 52.125 C 53.546875 52.550781 49.878906 53.023438 46.183594 53.449219 C 44.0625 53.699219 41.945312 53.898438 39.824219 54.101562 C 39.546875 54.125 39.449219 54 39.472656 53.75 C 39.597656 52.75 39.671875 51.726562 39.847656 50.726562 C 39.921875 50.199219 40.273438 49.75 40.570312 49.324219 C 43.492188 45.175781 45.984375 40.773438 48.628906 36.449219 C 50.824219 32.898438 53.023438 29.351562 55.21875 25.800781 C 55.441406 25.449219 55.59375 25.101562 55.640625 24.675781 C 55.816406 23.074219 55.964844 21.476562 56.164062 19.898438 C 56.214844 19.425781 56.039062 19.351562 55.640625 19.351562 C 53.96875 19.351562 52.324219 19.351562 50.652344 19.300781 C 50.050781 19.300781 49.726562 19.5 49.601562 20.125 C 49.304688 21.675781 49.230469 23.273438 49.054688 24.851562 C 48.953125 25.949219 48.980469 25.949219 47.90625 25.976562 C 46.660156 26 45.386719 26 44.140625 26.023438 C 43.714844 26.023438 43.589844 25.898438 43.640625 25.5 C 43.816406 24.324219 43.941406 23.125 44.140625 21.949219 C 44.363281 20.398438 44.363281 18.824219 44.761719 17.300781 C 45.164062 15.851562 45.835938 14.675781 47.332031 14.175781 C 47.632812 14.074219 47.933594 14.074219 48.230469 14.074219 C 50.027344 14.074219 51.800781 14.074219 53.597656 14.101562 Z M 53.597656 14.101562 "/>
<path style=" stroke:none;fill-rule:nonzero;fill:rgb(98.823529%,98.823529%,98.431373%);fill-opacity:1;" d="M 113.605469 33.074219 C 113.605469 34.449219 113.328125 35.851562 113.15625 37.273438 C 112.753906 40.226562 112.429688 43.175781 112.03125 46.101562 C 111.957031 46.75 111.78125 47.375 111.683594 48.023438 C 111.632812 48.425781 111.433594 48.574219 111.035156 48.601562 C 110.011719 48.601562 108.964844 48.625 107.941406 48.648438 C 107.539062 48.648438 107.339844 48.5 107.417969 48.050781 C 107.589844 46.800781 107.765625 45.550781 107.941406 44.300781 C 108.363281 41.25 108.8125 38.175781 109.238281 35.125 C 109.335938 34.425781 109.289062 33.699219 109.136719 33 C 108.914062 31.976562 108.238281 31.726562 107.417969 32.425781 C 106.367188 33.324219 105.746094 34.5 105.296875 35.773438 C 104.570312 37.824219 104.347656 40 103.949219 42.148438 C 103.597656 44.125 103.273438 46.125 102.949219 48.101562 C 102.875 48.625 102.648438 48.898438 102.078125 48.898438 C 101.253906 48.898438 100.453125 48.925781 99.632812 48.949219 C 99.082031 48.976562 98.859375 48.773438 98.957031 48.175781 C 99.257812 46.148438 99.53125 44.101562 99.832031 42.074219 C 100.128906 39.925781 100.453125 37.773438 100.730469 35.625 C 100.828125 34.75 100.753906 33.875 100.453125 33.050781 C 100.082031 32.023438 99.53125 31.875 98.757812 32.675781 C 97.636719 33.800781 96.910156 35.199219 96.488281 36.726562 C 95.8125 39.101562 95.539062 41.550781 95.164062 43.976562 C 94.941406 45.523438 94.691406 47.074219 94.464844 48.625 C 94.417969 49.050781 94.167969 49.226562 93.792969 49.25 C 92.769531 49.324219 91.722656 49.351562 90.699219 49.425781 C 90.273438 49.449219 90.222656 49.226562 90.273438 48.898438 C 90.449219 47.699219 90.597656 46.476562 90.773438 45.273438 C 91.523438 39.949219 92.246094 34.648438 92.992188 29.324219 C 93.070312 28.75 93.195312 28.175781 93.292969 27.574219 C 93.34375 27.199219 93.542969 27 93.941406 27 C 94.789062 27 95.640625 27 96.488281 27 C 96.886719 27 97.035156 27.199219 96.984375 27.574219 C 96.910156 28.101562 96.863281 28.625 96.8125 29.148438 C 96.785156 29.351562 96.6875 29.601562 96.910156 29.699219 C 97.136719 29.824219 97.234375 29.550781 97.386719 29.398438 C 97.933594 28.851562 98.382812 28.175781 99.007812 27.699219 C 99.207031 27.550781 99.429688 27.375 99.632812 27.199219 C 101.675781 25.5 103.796875 26.976562 104.398438 28.824219 C 104.496094 29.125 104.597656 29.449219 104.722656 29.75 C 104.945312 30.351562 104.972656 30.351562 105.394531 29.898438 C 106.09375 29.125 106.71875 28.300781 107.515625 27.648438 C 108.089844 27.175781 108.6875 26.773438 109.386719 26.523438 C 110.859375 26.050781 112.304688 26.851562 112.957031 28.550781 C 113.480469 30.023438 113.679688 31.5 113.605469 33.074219 Z M 113.605469 33.074219 "/>
<path style=" stroke:none;fill-rule:nonzero;fill:rgb(98.823529%,98.823529%,98.431373%);fill-opacity:1;" d="M 159.191406 32.25 C 158.941406 37.625 157.691406 42.648438 153.925781 46.75 C 152.703125 48.074219 151.253906 48.949219 149.382812 49.074219 C 149.035156 49.101562 148.585938 48.773438 148.386719 49.101562 C 148.238281 49.351562 148.363281 49.773438 148.335938 50.125 C 148.210938 52.550781 147.738281 54.925781 147.488281 57.324219 C 147.238281 59.574219 146.964844 61.851562 146.691406 64.101562 C 146.539062 65.273438 146.367188 66.425781 146.191406 67.601562 C 146.140625 67.898438 145.992188 68.023438 145.714844 68.023438 C 144.570312 68.074219 143.445312 68.125 142.296875 68.148438 C 141.75 68.175781 141.625 67.851562 141.699219 67.351562 C 142.347656 62.398438 142.996094 57.476562 143.570312 52.523438 C 144.167969 47.625 144.695312 42.699219 145.242188 37.800781 C 145.667969 34.074219 146.117188 30.375 146.566406 26.648438 C 146.714844 25.449219 146.765625 25.425781 147.960938 25.398438 C 148.5625 25.398438 149.183594 25.425781 149.785156 25.398438 C 150.234375 25.375 150.40625 25.574219 150.40625 26 C 150.40625 26.375 150.40625 26.726562 150.433594 27.101562 C 150.433594 27.226562 150.40625 27.398438 150.558594 27.476562 C 150.730469 27.550781 150.804688 27.398438 150.90625 27.300781 C 151.28125 26.925781 151.628906 26.523438 152.027344 26.175781 C 154.351562 24.050781 156.871094 24.574219 158.140625 27.449219 C 158.417969 28.074219 158.617188 28.699219 158.765625 29.351562 C 159.089844 30.300781 159.117188 31.273438 159.191406 32.25 Z M 155 33.976562 C 154.972656 33.300781 154.972656 32.824219 154.921875 32.324219 C 154.847656 31.625 154.675781 30.976562 154.226562 30.398438 C 153.726562 29.773438 153.128906 29.675781 152.476562 30.101562 C 151.503906 30.75 150.90625 31.648438 150.558594 32.75 C 149.859375 34.925781 149.757812 37.175781 149.460938 39.398438 C 149.285156 40.75 149.160156 42.101562 149.011719 43.449219 C 148.960938 43.898438 149.011719 44.300781 149.460938 44.574219 C 149.882812 44.824219 150.183594 44.574219 150.507812 44.375 C 151.207031 43.949219 151.753906 43.324219 152.203125 42.648438 C 154 40 154.847656 37 155 33.976562 Z M 155 33.976562 "/>
<path style=" stroke:none;fill-rule:nonzero;fill:rgb(98.823529%,98.823529%,98.431373%);fill-opacity:1;" d="M 200.808594 30.148438 C 201.082031 28.800781 201.382812 27.449219 201.65625 26.101562 C 201.808594 25.425781 201.609375 25.226562 200.933594 25.398438 C 200.734375 25.449219 200.511719 25.574219 200.335938 25.675781 C 199.511719 26.148438 198.8125 26.75 198.140625 27.398438 C 197.789062 27.75 197.390625 28.074219 197.015625 28.425781 C 196.917969 28.523438 196.792969 28.648438 196.640625 28.550781 C 196.492188 28.476562 196.542969 28.300781 196.542969 28.175781 C 196.542969 27.699219 196.542969 27.25 196.542969 26.773438 C 196.542969 26.351562 196.316406 26.148438 195.894531 26.125 C 195.394531 26.101562 194.871094 26.074219 194.371094 26.074219 C 192.5 26.148438 192.773438 25.875 192.5 27.800781 C 192.027344 31.375 191.527344 34.925781 190.976562 38.476562 C 190.554688 41.226562 190.179688 43.976562 189.753906 46.726562 C 189.707031 47.125 189.804688 47.25 190.203125 47.300781 C 190.976562 47.351562 191.75 47.324219 192.527344 47.300781 C 193.996094 47.273438 193.972656 47.25 194.195312 45.800781 C 194.847656 41.699219 195.792969 34.75 196.117188 33.824219 C 196.242188 33.476562 196.417969 33.175781 196.417969 33.175781 C 196.667969 32.773438 196.917969 32.523438 197.390625 32.074219 C 197.765625 31.726562 197.964844 31.550781 198.1875 31.476562 C 198.414062 31.398438 198.664062 31.375 198.914062 31.351562 C 199.164062 31.324219 199.289062 31.351562 199.5625 31.324219 C 199.785156 31.300781 199.960938 31.273438 200.0625 31.25 C 200.183594 31.199219 200.386719 31.074219 200.535156 30.851562 C 200.632812 30.726562 200.683594 30.601562 200.710938 30.5 C 200.734375 30.375 200.785156 30.25 200.808594 30.148438 Z M 200.808594 30.148438 "/>
<path style=" stroke:none;fill-rule:nonzero;fill:rgb(98.823529%,98.823529%,98.431373%);fill-opacity:1;" d="M 203.578125 39.648438 C 205.726562 38.824219 207.796875 37.824219 209.640625 36.449219 C 210.664062 35.675781 211.613281 34.875 212.136719 33.675781 C 212.660156 32.425781 212.613281 31.101562 212.460938 29.773438 C 212.0625 26.175781 208.820312 24.023438 205.25 25.925781 C 203.527344 26.851562 202.429688 28.375 201.457031 29.976562 C 201.207031 30.476562 200.359375 31.898438 200.359375 31.898438 C 200.335938 31.949219 200.308594 32 200.285156 32.050781 C 199.8125 32.976562 199.4375 33.925781 199.136719 34.898438 C 198.238281 37.851562 198.015625 40.824219 198.8125 43.800781 C 199.3125 45.601562 200.308594 47.148438 202.183594 47.773438 C 204.078125 48.398438 205.925781 48 207.519531 46.75 C 209.667969 45.074219 211.089844 42.875 212.039062 40.375 C 212.1875 39.949219 212.0625 39.75 211.613281 39.75 C 210.617188 39.773438 209.617188 39.800781 208.644531 39.824219 C 208.21875 39.851562 207.945312 40.050781 207.746094 40.5 C 207.222656 41.523438 206.648438 42.5 205.550781 43.023438 C 204.652344 43.449219 203.753906 43.125 203.402344 42.199219 C 203.179688 41.675781 203.15625 41.101562 203.054688 40.523438 C 202.929688 40.074219 203.128906 39.824219 203.578125 39.648438 Z M 203.28125 36.074219 C 203.554688 34.023438 204.027344 32.050781 205.425781 30.425781 C 205.699219 30.125 205.972656 29.824219 206.347656 29.648438 C 207.097656 29.25 207.746094 29.5 208.046875 30.300781 C 208.195312 30.699219 208.292969 31.125 208.269531 31.425781 C 208.292969 32.25 208.070312 32.824219 207.621094 33.324219 C 206.5 34.601562 205.125 35.5 203.703125 36.351562 C 203.402344 36.5 203.230469 36.449219 203.28125 36.074219 Z M 203.28125 36.074219 "/>
<path style=" stroke:none;fill-rule:nonzero;fill:rgb(98.823529%,98.823529%,98.431373%);fill-opacity:1;" d="M 37.875 14.074219 C 38.574219 14.074219 39.25 14.074219 39.949219 14.074219 C 40.296875 14.074219 40.347656 14.175781 40.296875 14.523438 C 39.824219 17.773438 39.398438 21.050781 38.925781 24.300781 C 38.375 28.199219 37.851562 32.101562 37.277344 36 C 36.878906 38.800781 36.429688 41.574219 36.003906 44.375 C 35.65625 46.75 35.355469 49.125 35.03125 51.5 C 34.882812 52.523438 34.734375 53.550781 34.582031 54.574219 C 34.53125 54.925781 34.359375 55.050781 34.007812 55.074219 C 32.289062 55.226562 30.566406 55.375 28.867188 55.574219 C 28.296875 55.648438 28.269531 55.351562 28.320312 54.949219 C 28.496094 53.851562 28.667969 52.75 28.84375 51.648438 C 29.417969 48.050781 29.964844 44.476562 30.539062 40.875 C 30.941406 38.425781 31.363281 36 31.761719 33.550781 C 32.0625 31.699219 32.289062 29.851562 32.585938 28 C 32.6875 27.351562 32.8125 26.675781 32.960938 26.023438 C 33.0625 25.601562 32.960938 25.425781 32.488281 25.476562 C 31.9375 25.523438 31.390625 25.523438 30.839844 25.550781 C 30.464844 25.574219 30.339844 25.398438 30.492188 25.050781 C 30.640625 24.699219 30.816406 24.351562 30.988281 24.023438 C 32.460938 21.050781 33.757812 18 35.03125 14.925781 C 35.28125 14.324219 35.554688 13.976562 36.253906 14.050781 C 36.828125 14.125 37.351562 14.074219 37.875 14.074219 Z M 37.875 14.074219 "/>
<path style=" stroke:none;fill-rule:nonzero;fill:rgb(98.823529%,98.823529%,98.431373%);fill-opacity:1;" d="M 171.542969 47.898438 C 169.695312 47.898438 169.667969 47.898438 169.945312 46.101562 C 170.445312 42.824219 170.96875 39.550781 171.492188 36.273438 C 171.640625 35.300781 171.714844 34.300781 171.640625 33.300781 C 171.617188 33.050781 171.589844 32.773438 171.515625 32.523438 C 171.242188 31.5 170.492188 31.300781 169.695312 32 C 168.421875 33.148438 167.671875 34.625 167.175781 36.226562 C 166.449219 38.574219 166.300781 41.023438 165.878906 43.398438 C 165.652344 44.699219 165.476562 46 165.304688 47.324219 C 165.253906 47.726562 165.078125 47.925781 164.65625 47.949219 C 163.632812 47.976562 162.632812 48.050781 161.609375 48.023438 C 161.160156 48.023438 161.0625 47.824219 161.113281 47.425781 C 161.5625 44.550781 161.960938 41.675781 162.433594 38.800781 C 163.332031 33.550781 164.253906 28.300781 165.078125 23.050781 C 165.503906 20.351562 166.027344 17.648438 166.5 14.949219 C 166.601562 14.449219 166.675781 13.949219 166.75 13.449219 C 166.800781 13.050781 167.023438 12.875 167.425781 12.875 C 168.347656 12.875 169.246094 12.875 170.167969 12.875 C 170.566406 12.875 170.71875 13.050781 170.644531 13.449219 C 170.46875 14.726562 170.292969 15.976562 170.117188 17.25 C 169.695312 20.125 169.269531 23 168.847656 25.875 C 168.695312 26.800781 168.496094 27.699219 168.347656 28.625 C 168.324219 28.773438 168.246094 28.976562 168.449219 29.050781 C 168.648438 29.125 168.746094 28.949219 168.847656 28.824219 C 169.171875 28.476562 169.46875 28.125 169.792969 27.800781 C 170.691406 26.824219 171.789062 26.273438 173.113281 26.625 C 174.511719 27 175.210938 28.125 175.609375 29.449219 C 176.230469 31.476562 176.058594 33.523438 175.757812 35.550781 C 175.210938 39.351562 174.636719 43.148438 174.109375 46.949219 C 174.035156 47.523438 173.785156 47.773438 173.238281 47.773438 C 172.640625 47.800781 172.089844 47.851562 171.542969 47.898438 Z M 171.542969 47.898438 "/>
<path style=" stroke:none;fill-rule:nonzero;fill:rgb(98.823529%,98.823529%,98.431373%);fill-opacity:1;" d="M 63.402344 47.800781 C 63.625 43.800781 65.449219 40.773438 68.066406 38.175781 C 69.339844 36.925781 70.761719 35.898438 72.382812 35.148438 C 73.855469 34.425781 74.53125 32.824219 74.03125 31.25 C 73.757812 30.425781 72.957031 30.074219 72.109375 30.476562 C 70.910156 31.050781 70.238281 32.074219 69.789062 33.25 C 69.164062 34.898438 69.164062 34.898438 67.394531 34.898438 C 66.871094 34.898438 66.347656 34.898438 65.820312 34.925781 C 65.398438 34.949219 65.199219 34.75 65.324219 34.324219 C 66.347656 30.773438 68.042969 27.648438 71.410156 25.898438 C 73.855469 24.625 76.898438 25.050781 78.148438 28.351562 C 78.773438 30 78.695312 31.601562 78.398438 33.273438 C 77.898438 36.050781 77.398438 38.824219 77.074219 41.625 C 76.925781 42.925781 76.625 44.226562 76.625 45.550781 C 76.625 46.074219 76.625 46.601562 76.898438 47.101562 C 77.226562 47.699219 77.625 47.824219 78.246094 47.5 C 78.597656 47.324219 78.898438 47.074219 79.144531 46.800781 C 79.546875 46.398438 79.894531 46.550781 80.269531 46.824219 C 80.71875 47.125 80.46875 47.425781 80.320312 47.699219 C 79.96875 48.300781 79.644531 48.898438 79.269531 49.476562 C 78.324219 50.976562 76.851562 51.625 75.105469 51.300781 C 74.304688 51.148438 73.757812 50.625 73.382812 49.898438 C 73.15625 49.476562 72.933594 49.023438 72.757812 48.574219 C 72.609375 48.226562 72.460938 48.273438 72.234375 48.476562 C 71.835938 48.800781 71.511719 49.175781 71.1875 49.574219 C 70.339844 50.601562 69.363281 51.398438 68.066406 51.773438 C 65.695312 52.476562 63.75 51.199219 63.476562 48.75 C 63.402344 48.375 63.402344 48 63.402344 47.800781 Z M 67.691406 45.675781 C 67.667969 47.074219 68.515625 47.648438 69.566406 47.101562 C 70.863281 46.449219 71.808594 45.398438 72.234375 44.023438 C 72.785156 42.273438 72.933594 40.449219 73.183594 38.625 C 73.207031 38.5 73.257812 38.351562 73.109375 38.300781 C 72.933594 38.226562 72.859375 38.398438 72.757812 38.476562 C 71.3125 39.574219 70.136719 40.949219 69.089844 42.425781 C 68.367188 43.449219 67.867188 44.601562 67.691406 45.675781 Z M 67.691406 45.675781 "/>
<path style=" stroke:none;fill-rule:nonzero;fill:rgb(98.823529%,98.823529%,98.431373%);fill-opacity:1;" d="M 129.449219 33.625 C 129.398438 37.726562 128.550781 41.375 126.503906 44.675781 C 125.457031 46.375 124.109375 47.800781 122.085938 48.375 C 119.417969 49.148438 116.722656 48 115.476562 45.5 C 114.527344 43.601562 114.203125 41.574219 114.277344 39.476562 C 114.453125 35.148438 115.648438 31.199219 118.417969 27.824219 C 119.21875 26.851562 120.214844 26.050781 121.4375 25.625 C 123.808594 24.773438 126.03125 25.523438 127.601562 27.625 C 128.972656 29.476562 129.324219 31.648438 129.449219 33.625 Z M 124.707031 34.5 C 124.707031 34 124.730469 33.476562 124.707031 32.976562 C 124.65625 32.300781 124.558594 31.648438 124.285156 31.023438 C 123.757812 29.898438 122.859375 29.675781 121.886719 30.449219 C 120.964844 31.175781 120.367188 32.148438 119.917969 33.199219 C 118.792969 35.773438 118.46875 38.476562 118.59375 41.25 C 118.621094 41.824219 118.71875 42.425781 118.945312 42.976562 C 119.46875 44.25 120.617188 44.550781 121.6875 43.675781 C 122.460938 43.050781 122.984375 42.25 123.410156 41.351562 C 124.40625 39.175781 124.707031 36.851562 124.707031 34.5 Z M 124.707031 34.5 "/>
<path style=" stroke:none;fill-rule:nonzero;fill:rgb(98.823529%,98.823529%,98.431373%);fill-opacity:1;" d="M 142.296875 31.773438 C 141.824219 31.773438 141.375 31.773438 140.902344 31.773438 C 140.476562 31.773438 140.253906 31.625 140.203125 31.148438 C 140.101562 30.175781 139.902344 29.226562 139.203125 28.476562 C 138.207031 27.375 137.082031 27.476562 136.359375 28.773438 C 135.363281 30.5 135.734375 32.949219 137.234375 34.300781 C 137.855469 34.875 138.53125 35.398438 139.203125 35.925781 C 140.226562 36.773438 141.125 37.726562 141.925781 38.800781 C 144.570312 42.300781 142.972656 47.125 138.730469 48.300781 C 136.984375 48.800781 135.210938 48.800781 133.515625 48.273438 C 131.195312 47.574219 130.023438 45.824219 129.546875 43.550781 C 129.347656 42.625 129.25 41.699219 129.324219 40.773438 C 129.347656 40.273438 129.523438 40.023438 130.046875 40.023438 C 130.746094 40.023438 131.417969 40.023438 132.117188 40 C 132.640625 39.976562 132.867188 40.199219 132.917969 40.726562 C 133.042969 41.949219 133.289062 43.148438 134.214844 44.074219 C 134.863281 44.75 135.609375 45.273438 136.632812 45.125 C 138.457031 44.824219 139.402344 42.574219 138.378906 41.023438 C 137.882812 40.300781 137.183594 39.824219 136.507812 39.300781 C 135.835938 38.773438 135.136719 38.300781 134.464844 37.773438 C 131.667969 35.5 130.519531 31.273438 131.84375 27.949219 C 132.792969 25.574219 134.5625 24.050781 137.15625 23.800781 C 139.902344 23.550781 141.925781 24.800781 143.269531 27.175781 C 143.894531 28.300781 144.269531 29.523438 144.445312 30.800781 C 144.570312 31.648438 144.394531 31.824219 143.570312 31.824219 C 143.171875 31.824219 142.746094 31.824219 142.347656 31.824219 C 142.296875 31.800781 142.296875 31.800781 142.296875 31.773438 Z M 142.296875 31.773438 "/>
<path style=" stroke:none;fill-rule:nonzero;fill:rgb(98.823529%,98.823529%,98.431373%);fill-opacity:1;" d="M 176.605469 40.425781 C 176.65625 37.601562 177.28125 35.324219 178.152344 33.050781 C 179 30.851562 180.175781 28.898438 181.820312 27.226562 C 182.769531 26.273438 183.941406 25.675781 185.265625 25.398438 C 187.136719 25.023438 189.132812 26.25 189.855469 28.300781 C 190.40625 29.875 190.554688 31.5 190.230469 33.175781 C 190.003906 34.425781 189.355469 35.375 188.359375 36.125 C 186.289062 37.699219 184.015625 38.925781 181.570312 39.824219 C 181.097656 40 180.875 40.226562 180.921875 40.75 C 180.949219 41.199219 180.949219 41.648438 181.046875 42.074219 C 181.296875 43.125 181.996094 43.574219 183.042969 43.324219 C 184.066406 43.074219 184.789062 42.398438 185.4375 41.648438 C 185.738281 41.300781 186.039062 40.925781 186.238281 40.5 C 186.4375 40.101562 186.710938 39.925781 187.136719 39.925781 C 187.835938 39.925781 188.507812 39.898438 189.207031 39.875 C 189.480469 39.875 189.707031 39.949219 189.605469 40.300781 C 188.808594 43.449219 187.261719 46.148438 184.265625 47.550781 C 181.320312 48.925781 177.828125 47.851562 176.957031 43.75 C 176.707031 42.550781 176.65625 41.300781 176.605469 40.425781 Z M 186.4375 31.375 C 186.414062 31.125 186.414062 30.851562 186.363281 30.601562 C 186.238281 29.699219 185.761719 29.425781 184.890625 29.773438 C 184.464844 29.949219 184.117188 30.226562 183.816406 30.550781 C 182.34375 32.101562 181.722656 34.023438 181.347656 36.074219 C 181.320312 36.226562 181.222656 36.425781 181.371094 36.523438 C 181.523438 36.648438 181.671875 36.476562 181.820312 36.398438 C 183.042969 35.675781 184.214844 34.898438 185.289062 33.949219 C 186.113281 33.273438 186.488281 32.425781 186.4375 31.375 Z M 186.4375 31.375 "/>
<path style=" stroke:none;fill-rule:nonzero;fill:rgb(98.823529%,98.823529%,98.431373%);fill-opacity:1;" d="M 89.601562 25.976562 C 90.125 25.976562 90.648438 25.976562 91.171875 25.976562 C 91.570312 25.976562 91.796875 26.101562 91.695312 26.550781 C 91.546875 27.25 91.421875 27.949219 91.246094 28.625 C 91.171875 28.976562 90.898438 29.074219 90.550781 29.074219 C 89.652344 29.074219 88.753906 29.125 87.878906 29.125 C 87.453125 29.125 87.253906 29.300781 87.15625 29.75 C 86.582031 32.324219 86.355469 34.976562 85.90625 37.574219 C 85.683594 38.949219 85.535156 40.324219 85.433594 41.699219 C 85.382812 42.25 85.433594 42.800781 85.535156 43.351562 C 85.734375 44.351562 86.433594 44.625 87.253906 44.023438 C 87.703125 43.699219 88.105469 43.324219 88.550781 43.023438 C 88.777344 42.851562 89.027344 42.550781 89.351562 42.773438 C 89.675781 43 89.824219 43.351562 89.726562 43.75 C 89.328125 45.25 88.953125 46.75 87.855469 47.925781 C 87.179688 48.648438 86.480469 49.375 85.582031 49.824219 C 83.910156 50.648438 82.316406 49.976562 81.691406 48.199219 C 80.96875 46.199219 80.992188 44.148438 81.167969 42.050781 C 81.515625 38.148438 82.140625 34.300781 82.664062 30.449219 C 82.6875 30.300781 82.6875 30.148438 82.714844 30.023438 C 82.890625 29.425781 82.589844 29.300781 82.066406 29.324219 C 81.265625 29.375 80.492188 29.351562 79.695312 29.375 C 79.171875 29.398438 78.921875 29.199219 79.046875 28.648438 C 79.171875 28 79.296875 27.375 79.394531 26.726562 C 79.445312 26.375 79.644531 26.273438 79.996094 26.273438 C 80.816406 26.273438 81.667969 26.25 82.488281 26.25 C 83.039062 26.25 83.335938 26.023438 83.414062 25.449219 C 83.710938 23.226562 84.085938 21 84.386719 18.75 C 84.460938 18.273438 84.636719 18 85.160156 17.898438 C 85.984375 17.75 86.730469 17.398438 87.429688 16.925781 C 87.777344 16.699219 88.105469 16.375 88.527344 16.648438 C 88.953125 16.898438 88.851562 17.375 88.800781 17.773438 C 88.429688 20.273438 88.054688 22.75 87.679688 25.25 C 87.554688 26 87.578125 26.023438 88.304688 26.023438 C 88.753906 26.023438 89.203125 26.023438 89.652344 26.023438 C 89.601562 26.023438 89.601562 26 89.601562 25.976562 Z M 89.601562 25.976562 "/>
<path style=" stroke:none;fill-rule:nonzero;fill:rgb(98.823529%,98.823529%,98.431373%);fill-opacity:1;" d="M 218.675781 48.125 C 216.179688 48.226562 214.28125 47.226562 213.183594 44.976562 C 212.511719 43.601562 212.613281 42.125 213.011719 40.699219 C 213.085938 40.449219 213.234375 40.273438 213.535156 40.273438 C 213.585938 40.273438 213.660156 40.273438 213.710938 40.273438 C 214.308594 40.273438 215.03125 40.101562 215.503906 40.351562 C 215.980469 40.601562 215.855469 41.398438 215.980469 41.976562 C 216.304688 43.226562 216.804688 44.25 218.152344 44.675781 C 219.574219 45.125 221.195312 44.175781 221.445312 42.726562 C 221.519531 42.226562 221.417969 41.75 221.121094 41.351562 C 220.597656 40.648438 219.996094 40.074219 219.296875 39.574219 C 217.875 38.550781 216.578125 37.398438 215.480469 36.023438 C 214.582031 34.925781 214.058594 33.675781 214.058594 32.226562 C 214.058594 30.574219 214.058594 28.898438 215.03125 27.449219 C 216.355469 25.425781 218.273438 24.550781 220.695312 24.675781 C 222.09375 24.75 223.414062 25.050781 224.488281 26.074219 C 226.109375 27.675781 226.585938 29.625 226.210938 31.824219 C 226.160156 32.125 225.933594 32.199219 225.6875 32.25 C 224.914062 32.449219 224.113281 32.351562 223.316406 32.351562 C 222.964844 32.351562 222.964844 32.074219 222.941406 31.824219 C 222.867188 31.300781 222.964844 30.75 222.765625 30.25 C 222.667969 29.976562 222.566406 29.699219 222.390625 29.5 C 221.867188 28.800781 221.246094 28.25 220.296875 28.398438 C 219.375 28.550781 218.898438 29.199219 218.675781 30.074219 C 218.375 31.175781 218.675781 32.199219 219.097656 33.199219 C 219.722656 34.574219 220.84375 35.523438 221.96875 36.449219 C 223.613281 37.773438 225.113281 39.25 225.5625 41.425781 C 226.308594 44.925781 224.414062 47.25 221.320312 47.925781 C 220.472656 48.074219 219.574219 48.199219 218.675781 48.125 Z M 218.675781 48.125 "/>
<path style=" stroke:none;fill-rule:nonzero;fill:rgb(97.647059%,2.352941%,2.352941%);fill-opacity:1;" d="M 207.722656 49.648438 C 212.238281 49.449219 218 49.699219 223.765625 49.574219 C 224.238281 49.574219 224.738281 49.425781 225.210938 49.5 C 226.757812 49.75 227.605469 48.875 228.429688 47.75 C 229.453125 46.351562 230.578125 45.023438 231.648438 43.675781 C 231.773438 43.5 231.949219 43.398438 232.148438 43.324219 C 232.398438 43.226562 232.648438 43.25 232.820312 43.449219 C 232.996094 43.648438 232.820312 43.851562 232.722656 44 C 231.648438 45.625 230.578125 47.273438 229.480469 48.898438 C 229.078125 49.476562 228.753906 50.125 228.304688 50.675781 C 228.03125 51 227.757812 51.125 227.359375 51.101562 C 225.859375 51.074219 224.363281 51.023438 222.867188 51.023438 C 218.398438 51.023438 213.933594 51.050781 209.46875 51.148438 C 206.398438 51.226562 203.328125 51.476562 200.234375 51.5 C 197.988281 51.523438 195.71875 51.398438 193.472656 51.625 C 188.707031 52.125 183.890625 51.75 179.125 52.101562 C 175.683594 52.351562 172.238281 52.273438 168.796875 52.5 C 165.203125 52.726562 161.585938 52.875 157.992188 52.976562 C 156.121094 53.023438 154.273438 53.175781 152.402344 53.273438 C 151.953125 53.300781 151.457031 53.324219 151.230469 52.824219 C 151.007812 52.324219 151.082031 51.773438 151.332031 51.300781 C 151.480469 51.023438 151.753906 51.023438 152.027344 51 C 154.75 50.800781 157.445312 50.574219 160.164062 50.574219 C 162.90625 50.601562 165.652344 50.601562 168.371094 50.425781 C 173.261719 50.125 178.152344 50.300781 183.019531 50 C 190.878906 49.574219 198.6875 49.824219 207.722656 49.648438 Z M 207.722656 49.648438 "/>
</g>
</svg>
