<?xml version="1.0" encoding="UTF-8"?>
<svg xmlns="http://www.w3.org/2000/svg" xmlns:xlink="http://www.w3.org/1999/xlink" width="640px" height="640px" viewBox="0 0 640 640" version="1.1">
<g id="surface1">
<path style=" stroke:none;fill-rule:nonzero;fill:rgb(97.647059%,2.352941%,2.352941%);fill-opacity:1;" d="M 324.480469 316.414062 C 334.527344 316.03125 344.894531 316.03125 355.328125 315.96875 C 357.246094 315.96875 359.167969 315.585938 361.089844 315.902344 C 362.113281 316.097656 362.558594 316.609375 362.496094 317.566406 C 362.496094 318.527344 362.496094 319.550781 362.367188 320.511719 C 362.113281 322.046875 361.28125 322.945312 359.550781 323.007812 C 353.34375 323.265625 347.136719 323.839844 340.863281 323.902344 C 332.222656 323.96875 323.648438 324.929688 315.070312 325.503906 C 309.761719 325.886719 304.382812 326.015625 299.136719 326.65625 C 292.097656 327.488281 285.054688 327.679688 278.015625 328.574219 C 273.40625 329.152344 268.800781 329.601562 264.257812 330.175781 C 259.585938 330.753906 254.847656 331.070312 250.238281 331.902344 C 246.464844 332.609375 242.558594 333.054688 238.71875 333.566406 C 234.816406 334.078125 230.976562 334.847656 227.070312 335.425781 C 223.9375 335.871094 220.800781 336.511719 217.726562 337.089844 C 212.222656 338.113281 206.71875 339.070312 201.28125 340.160156 C 196.800781 341.054688 192.382812 342.144531 187.839844 342.785156 C 186.558594 342.976562 185.214844 343.550781 184.191406 344.703125 C 182.71875 346.433594 180.480469 346.753906 178.496094 346.878906 C 172.992188 347.199219 167.550781 348.03125 162.046875 348.671875 C 156.542969 349.246094 150.976562 349.632812 145.472656 350.527344 C 141.375 351.167969 137.28125 351.871094 133.121094 352 C 131.007812 352.0625 128.894531 352.511719 127.105469 353.855469 C 126.910156 353.984375 126.65625 354.113281 126.398438 354.113281 C 118.398438 355.265625 110.464844 356.800781 102.273438 356.609375 C 99.136719 356.542969 96.449219 355.265625 93.503906 354.6875 C 91.457031 354.304688 89.40625 353.40625 87.359375 353.089844 C 85.3125 352.769531 83.328125 352.0625 81.34375 351.488281 C 77.886719 350.398438 74.367188 349.632812 70.847656 348.609375 C 67.839844 347.710938 64.640625 347.390625 61.566406 346.625 C 57.152344 345.535156 52.734375 344.832031 48.320312 344.0625 C 43.328125 343.230469 38.398438 341.953125 33.34375 341.375 C 32.640625 341.3125 31.9375 341.121094 31.167969 340.992188 C 30.785156 340.929688 30.464844 340.734375 30.464844 340.289062 C 30.464844 339.839844 30.847656 339.648438 31.167969 339.585938 C 32.0625 339.390625 32.894531 339.199219 33.792969 339.199219 C 40.0625 338.945312 46.207031 337.855469 52.351562 337.214844 C 57.792969 336.640625 63.167969 335.9375 68.609375 335.425781 C 74.753906 334.785156 80.894531 334.207031 87.039062 333.503906 C 92.097656 332.929688 97.152344 332.480469 102.207031 331.839844 C 108.160156 331.136719 114.113281 330.433594 120 329.984375 C 125.183594 329.601562 130.367188 328.960938 135.488281 328.449219 C 140.03125 328 144.574219 327.679688 149.121094 326.847656 C 152.191406 326.273438 155.328125 326.59375 158.464844 326.015625 C 161.726562 325.441406 165.121094 325.441406 168.382812 325.121094 C 177.921875 324.03125 187.585938 323.777344 197.121094 323.070312 C 204.160156 322.625 211.199219 321.792969 218.238281 321.472656 C 224.0625 321.214844 229.824219 320.640625 235.648438 320.128906 C 238.785156 319.871094 241.984375 319.550781 245.121094 319.488281 C 255.808594 319.167969 266.496094 318.398438 277.246094 318.015625 C 287.871094 317.632812 298.433594 317.054688 309.054688 316.863281 C 314.113281 316.863281 319.105469 316.289062 324.480469 316.414062 Z M 324.480469 316.414062 "/>
<path style=" stroke:none;fill-rule:nonzero;fill:rgb(97.647059%,2.352941%,2.352941%);fill-opacity:1;" d="M 532.800781 312.449219 C 544.382812 311.9375 559.167969 312.574219 573.953125 312.257812 C 575.167969 312.257812 576.449219 311.871094 577.664062 312.0625 C 581.632812 312.703125 583.808594 310.464844 585.921875 307.585938 C 588.542969 304 591.425781 300.609375 594.175781 297.152344 C 594.496094 296.703125 594.945312 296.449219 595.457031 296.257812 C 596.097656 296 596.734375 296.0625 597.183594 296.574219 C 597.632812 297.089844 597.183594 297.601562 596.929688 297.984375 C 594.175781 302.144531 591.425781 306.367188 588.609375 310.527344 C 587.585938 312 586.753906 313.664062 585.601562 315.070312 C 584.894531 315.902344 584.191406 316.222656 583.167969 316.160156 C 579.328125 316.097656 575.488281 315.96875 571.648438 315.96875 C 560.191406 315.96875 548.734375 316.03125 537.28125 316.289062 C 529.40625 316.480469 521.535156 317.121094 513.601562 317.183594 C 507.839844 317.246094 502.015625 316.929688 496.257812 317.503906 C 484.03125 318.785156 471.679688 317.824219 459.457031 318.71875 C 450.625 319.359375 441.792969 319.167969 432.960938 319.742188 C 423.742188 320.320312 414.464844 320.703125 405.246094 320.960938 C 400.449219 321.089844 395.710938 321.472656 390.910156 321.726562 C 389.761719 321.792969 388.480469 321.855469 387.902344 320.574219 C 387.328125 319.296875 387.519531 317.886719 388.160156 316.671875 C 388.542969 315.96875 389.246094 315.96875 389.953125 315.902344 C 396.929688 315.390625 403.839844 314.816406 410.816406 314.816406 C 417.855469 314.878906 424.894531 314.878906 431.871094 314.433594 C 444.414062 313.664062 456.960938 314.113281 469.441406 313.34375 C 489.601562 312.257812 509.632812 312.894531 532.800781 312.449219 Z M 532.800781 312.449219 "/>
<path style=" stroke:none;fill-rule:nonzero;fill:rgb(11.372549%,11.372549%,10.588235%);fill-opacity:1;" d="M 137.472656 221.441406 C 141.761719 221.441406 146.046875 221.632812 150.273438 221.375 C 155.710938 221.054688 157.953125 225.472656 157.375 229.695312 C 156.863281 233.34375 156.480469 236.992188 156.160156 240.703125 C 155.96875 243.457031 156.160156 246.207031 155.390625 248.894531 C 154.816406 251.007812 153.792969 252.929688 152.640625 254.847656 C 143.679688 269.886719 134.71875 284.929688 125.761719 299.96875 C 124.609375 301.886719 123.328125 303.742188 122.175781 305.601562 C 121.984375 305.855469 121.535156 306.113281 121.792969 306.558594 C 122.046875 307.007812 122.558594 306.878906 122.945312 306.816406 C 126.976562 306.625 130.878906 305.921875 134.847656 305.40625 C 139.328125 304.832031 143.871094 304.511719 148.351562 304.191406 C 149.246094 304.128906 149.632812 304.574219 149.503906 305.40625 C 148.929688 309.441406 148.992188 313.535156 148.289062 317.503906 C 148.160156 318.335938 147.648438 318.65625 146.816406 318.785156 C 137.34375 319.871094 127.9375 321.089844 118.464844 322.175781 C 113.023438 322.816406 107.585938 323.328125 102.144531 323.839844 C 101.441406 323.902344 101.183594 323.585938 101.246094 322.945312 C 101.566406 320.382812 101.761719 317.761719 102.207031 315.199219 C 102.398438 313.855469 103.296875 312.703125 104.0625 311.617188 C 111.550781 300.992188 117.953125 289.726562 124.734375 278.65625 C 130.367188 269.566406 136 260.480469 141.632812 251.390625 C 142.207031 250.496094 142.59375 249.601562 142.71875 248.511719 C 143.167969 244.414062 143.550781 240.320312 144.0625 236.289062 C 144.191406 235.070312 143.742188 234.878906 142.71875 234.878906 C 138.433594 234.878906 134.207031 234.878906 129.921875 234.753906 C 128.382812 234.753906 127.550781 235.265625 127.230469 236.863281 C 126.464844 240.832031 126.273438 244.929688 125.824219 248.960938 C 125.566406 251.777344 125.632812 251.777344 122.878906 251.839844 C 119.679688 251.902344 116.414062 251.902344 113.214844 251.96875 C 112.128906 251.96875 111.808594 251.648438 111.9375 250.625 C 112.382812 247.617188 112.703125 244.542969 113.214844 241.535156 C 113.792969 237.566406 113.792969 233.535156 114.816406 229.632812 C 115.839844 225.921875 117.566406 222.910156 121.40625 221.632812 C 122.175781 221.375 122.945312 221.375 123.710938 221.375 C 128.320312 221.375 132.863281 221.375 137.472656 221.441406 Z M 137.472656 221.441406 "/>
<path style=" stroke:none;fill-rule:nonzero;fill:rgb(11.372549%,11.372549%,10.588235%);fill-opacity:1;" d="M 291.390625 270.015625 C 291.390625 273.535156 290.6875 277.121094 290.238281 280.769531 C 289.214844 288.320312 288.382812 295.871094 287.359375 303.359375 C 287.167969 305.023438 286.71875 306.625 286.464844 308.289062 C 286.335938 309.3125 285.824219 309.695312 284.800781 309.761719 C 282.175781 309.761719 279.488281 309.824219 276.863281 309.886719 C 275.839844 309.886719 275.328125 309.503906 275.519531 308.351562 C 275.96875 305.152344 276.414062 301.953125 276.863281 298.753906 C 277.953125 290.945312 279.105469 283.070312 280.191406 275.265625 C 280.449219 273.472656 280.320312 271.617188 279.9375 269.824219 C 279.359375 267.199219 277.632812 266.558594 275.519531 268.351562 C 272.832031 270.65625 271.230469 273.664062 270.078125 276.929688 C 268.222656 282.175781 267.648438 287.742188 266.625 293.246094 C 265.726562 298.304688 264.894531 303.425781 264.0625 308.480469 C 263.871094 309.824219 263.296875 310.527344 261.824219 310.527344 C 259.710938 310.527344 257.664062 310.59375 255.550781 310.65625 C 254.144531 310.71875 253.566406 310.207031 253.824219 308.671875 C 254.59375 303.488281 255.296875 298.238281 256.0625 293.054688 C 256.832031 287.550781 257.664062 282.046875 258.367188 276.542969 C 258.625 274.304688 258.433594 272.0625 257.664062 269.953125 C 256.703125 267.328125 255.296875 266.945312 253.3125 268.992188 C 250.433594 271.871094 248.574219 275.457031 247.488281 279.359375 C 245.761719 285.441406 245.054688 291.710938 244.097656 297.921875 C 243.519531 301.886719 242.878906 305.855469 242.304688 309.824219 C 242.175781 310.910156 241.535156 311.359375 240.574219 311.425781 C 237.953125 311.617188 235.265625 311.679688 232.640625 311.871094 C 231.550781 311.9375 231.425781 311.359375 231.550781 310.527344 C 232 307.457031 232.382812 304.320312 232.832031 301.246094 C 234.753906 287.617188 236.609375 274.046875 238.527344 260.414062 C 238.71875 258.945312 239.039062 257.472656 239.296875 255.9375 C 239.425781 254.976562 239.9375 254.464844 240.960938 254.464844 C 243.136719 254.464844 245.3125 254.464844 247.488281 254.464844 C 248.511719 254.464844 248.894531 254.976562 248.769531 255.9375 C 248.574219 257.28125 248.449219 258.625 248.320312 259.96875 C 248.257812 260.480469 248 261.121094 248.574219 261.375 C 249.152344 261.695312 249.40625 260.992188 249.792969 260.609375 C 251.199219 259.199219 252.351562 257.472656 253.953125 256.257812 C 254.464844 255.871094 255.039062 255.425781 255.550781 254.976562 C 260.800781 250.625 266.238281 254.398438 267.777344 259.136719 C 268.03125 259.902344 268.289062 260.734375 268.609375 261.503906 C 269.183594 263.039062 269.246094 263.039062 270.335938 261.886719 C 272.128906 259.902344 273.726562 257.792969 275.777344 256.128906 C 277.246094 254.910156 278.785156 253.886719 280.574219 253.246094 C 284.351562 252.03125 288.0625 254.078125 289.726562 258.433594 C 291.070312 262.207031 291.585938 265.984375 291.390625 270.015625 Z M 291.390625 270.015625 "/>
<path style=" stroke:none;fill-rule:nonzero;fill:rgb(11.372549%,11.372549%,10.588235%);fill-opacity:1;" d="M 408.320312 267.902344 C 407.679688 281.664062 404.480469 294.527344 394.816406 305.023438 C 391.679688 308.414062 387.96875 310.65625 383.167969 310.976562 C 382.273438 311.039062 381.121094 310.207031 380.609375 311.039062 C 380.222656 311.679688 380.542969 312.769531 380.480469 313.664062 C 380.160156 319.871094 378.945312 325.953125 378.304688 332.097656 C 377.664062 337.855469 376.960938 343.679688 376.257812 349.441406 C 375.871094 352.449219 375.425781 355.390625 374.976562 358.398438 C 374.847656 359.167969 374.464844 359.488281 373.761719 359.488281 C 370.816406 359.617188 367.9375 359.742188 364.992188 359.808594 C 363.585938 359.871094 363.265625 359.039062 363.457031 357.761719 C 365.121094 345.089844 366.785156 332.480469 368.257812 319.808594 C 369.792969 307.265625 371.136719 294.65625 372.542969 282.113281 C 373.632812 272.574219 374.785156 263.105469 375.9375 253.566406 C 376.320312 250.496094 376.449219 250.433594 379.519531 250.367188 C 381.054688 250.367188 382.65625 250.433594 384.191406 250.367188 C 385.34375 250.304688 385.792969 250.816406 385.792969 251.902344 C 385.792969 252.863281 385.792969 253.761719 385.855469 254.71875 C 385.855469 255.039062 385.792969 255.488281 386.175781 255.679688 C 386.625 255.871094 386.816406 255.488281 387.070312 255.230469 C 388.03125 254.273438 388.929688 253.246094 389.953125 252.351562 C 395.902344 246.910156 402.367188 248.257812 405.632812 255.617188 C 406.335938 257.214844 406.847656 258.816406 407.230469 260.480469 C 408.0625 262.910156 408.128906 265.40625 408.320312 267.902344 Z M 397.566406 272.320312 C 397.503906 270.59375 397.503906 269.375 397.375 268.097656 C 397.183594 266.304688 396.734375 264.640625 395.585938 263.167969 C 394.304688 261.566406 392.769531 261.3125 391.105469 262.398438 C 388.609375 264.0625 387.070312 266.367188 386.175781 269.183594 C 384.382812 274.753906 384.128906 280.511719 383.359375 286.207031 C 382.910156 289.664062 382.59375 293.121094 382.207031 296.574219 C 382.078125 297.726562 382.207031 298.753906 383.359375 299.457031 C 384.449219 300.097656 385.214844 299.457031 386.046875 298.945312 C 387.839844 297.855469 389.246094 296.257812 390.398438 294.527344 C 395.007812 287.742188 397.183594 280.0625 397.566406 272.320312 Z M 397.566406 272.320312 "/>
<path style=" stroke:none;fill-rule:nonzero;fill:rgb(11.372549%,11.372549%,10.588235%);fill-opacity:1;" d="M 515.070312 262.527344 C 515.777344 259.070312 516.542969 255.617188 517.246094 252.160156 C 517.632812 250.433594 517.121094 249.921875 515.390625 250.367188 C 514.878906 250.496094 514.304688 250.816406 513.855469 251.070312 C 511.742188 252.289062 509.953125 253.824219 508.222656 255.488281 C 507.328125 256.382812 506.304688 257.214844 505.34375 258.113281 C 505.089844 258.367188 504.769531 258.6875 504.382812 258.433594 C 504 258.238281 504.128906 257.792969 504.128906 257.472656 C 504.128906 256.257812 504.128906 255.105469 504.128906 253.886719 C 504.128906 252.800781 503.550781 252.289062 502.464844 252.222656 C 501.183594 252.160156 499.839844 252.097656 498.558594 252.097656 C 493.761719 252.289062 494.464844 251.585938 493.761719 256.511719 C 492.542969 265.664062 491.265625 274.753906 489.855469 283.839844 C 488.769531 290.878906 487.808594 297.921875 486.71875 304.960938 C 486.59375 305.984375 486.847656 306.304688 487.871094 306.433594 C 489.855469 306.558594 491.839844 306.496094 493.824219 306.433594 C 497.601562 306.367188 497.535156 306.304688 498.113281 302.59375 C 499.777344 292.097656 502.207031 274.304688 503.039062 271.9375 C 503.359375 271.039062 503.808594 270.273438 503.808594 270.273438 C 504.449219 269.246094 505.089844 268.609375 506.304688 267.457031 C 507.265625 266.558594 507.777344 266.113281 508.351562 265.921875 C 508.929688 265.726562 509.566406 265.664062 510.207031 265.601562 C 510.847656 265.535156 511.167969 265.601562 511.871094 265.535156 C 512.449219 265.472656 512.894531 265.40625 513.152344 265.34375 C 513.472656 265.214844 513.984375 264.894531 514.367188 264.320312 C 514.625 264 514.753906 263.679688 514.816406 263.425781 C 514.878906 263.105469 515.007812 262.785156 515.070312 262.527344 Z M 515.070312 262.527344 "/>
<path style=" stroke:none;fill-rule:nonzero;fill:rgb(11.372549%,11.372549%,10.588235%);fill-opacity:1;" d="M 522.175781 286.847656 C 527.679688 284.734375 532.992188 282.175781 537.726562 278.65625 C 540.351562 276.671875 542.785156 274.625 544.128906 271.550781 C 545.472656 268.351562 545.34375 264.960938 544.960938 261.566406 C 543.9375 252.351562 535.617188 246.847656 526.464844 251.710938 C 522.046875 254.078125 519.230469 257.984375 516.734375 262.078125 C 516.097656 263.359375 513.921875 267.007812 513.921875 267.007812 C 513.855469 267.136719 513.792969 267.265625 513.726562 267.390625 C 512.511719 269.761719 511.550781 272.191406 510.785156 274.6875 C 508.480469 282.238281 507.902344 289.855469 509.953125 297.472656 C 511.230469 302.078125 513.792969 306.046875 518.59375 307.648438 C 523.457031 309.246094 528.191406 308.222656 532.289062 305.023438 C 537.792969 300.734375 541.441406 295.105469 543.871094 288.703125 C 544.257812 287.617188 543.9375 287.105469 542.785156 287.105469 C 540.222656 287.167969 537.664062 287.230469 535.167969 287.296875 C 534.078125 287.359375 533.375 287.871094 532.863281 289.023438 C 531.519531 291.648438 530.046875 294.144531 527.230469 295.488281 C 524.929688 296.574219 522.625 295.742188 521.726562 293.375 C 521.152344 292.03125 521.089844 290.558594 520.832031 289.089844 C 520.511719 287.9375 521.023438 287.296875 522.175781 286.847656 Z M 521.40625 277.695312 C 522.113281 272.449219 523.328125 267.390625 526.910156 263.230469 C 527.617188 262.464844 528.320312 261.695312 529.28125 261.246094 C 531.199219 260.222656 532.863281 260.863281 533.632812 262.910156 C 534.015625 263.9375 534.273438 265.023438 534.207031 265.792969 C 534.273438 267.902344 533.695312 269.375 532.542969 270.65625 C 529.664062 273.921875 526.144531 276.222656 522.496094 278.398438 C 521.726562 278.785156 521.28125 278.65625 521.40625 277.695312 Z M 521.40625 277.695312 "/>
<path style=" stroke:none;fill-rule:nonzero;fill:rgb(11.372549%,11.372549%,10.588235%);fill-opacity:1;" d="M 97.152344 221.375 C 98.945312 221.375 100.671875 221.375 102.464844 221.375 C 103.359375 221.375 103.488281 221.632812 103.359375 222.527344 C 102.144531 230.847656 101.054688 239.230469 99.839844 247.550781 C 98.433594 257.535156 97.089844 267.519531 95.617188 277.503906 C 94.59375 284.671875 93.441406 291.777344 92.351562 298.945312 C 91.457031 305.023438 90.6875 311.105469 89.855469 317.183594 C 89.472656 319.808594 89.089844 322.433594 88.703125 325.054688 C 88.574219 325.953125 88.128906 326.273438 87.230469 326.335938 C 82.816406 326.71875 78.398438 327.105469 74.046875 327.617188 C 72.574219 327.808594 72.511719 327.039062 72.640625 326.015625 C 73.089844 323.199219 73.535156 320.382812 73.984375 317.566406 C 75.457031 308.351562 76.863281 299.199219 78.335938 289.984375 C 79.359375 283.710938 80.449219 277.503906 81.472656 271.230469 C 82.238281 266.496094 82.816406 261.761719 83.585938 257.023438 C 83.839844 255.359375 84.160156 253.632812 84.542969 251.96875 C 84.800781 250.878906 84.542969 250.433594 83.328125 250.558594 C 81.921875 250.6875 80.511719 250.6875 79.105469 250.753906 C 78.144531 250.816406 77.824219 250.367188 78.207031 249.472656 C 78.59375 248.574219 79.039062 247.679688 79.488281 246.847656 C 83.265625 239.230469 86.59375 231.425781 89.855469 223.550781 C 90.496094 222.015625 91.199219 221.121094 92.992188 221.3125 C 94.464844 221.503906 95.808594 221.375 97.152344 221.375 Z M 97.152344 221.375 "/>
<path style=" stroke:none;fill-rule:nonzero;fill:rgb(11.372549%,11.372549%,10.588235%);fill-opacity:1;" d="M 440 307.96875 C 435.265625 307.96875 435.199219 307.96875 435.902344 303.359375 C 437.183594 294.976562 438.527344 286.59375 439.871094 278.207031 C 440.257812 275.710938 440.449219 273.152344 440.257812 270.59375 C 440.191406 269.953125 440.128906 269.246094 439.9375 268.609375 C 439.230469 265.984375 437.3125 265.472656 435.265625 267.265625 C 432 270.207031 430.078125 273.984375 428.800781 278.078125 C 426.945312 284.097656 426.558594 290.367188 425.472656 296.449219 C 424.894531 299.777344 424.449219 303.105469 424 306.496094 C 423.871094 307.519531 423.425781 308.03125 422.335938 308.097656 C 419.710938 308.160156 417.152344 308.351562 414.527344 308.289062 C 413.375 308.289062 413.121094 307.777344 413.246094 306.753906 C 414.398438 299.390625 415.425781 292.03125 416.640625 284.671875 C 418.945312 271.230469 421.3125 257.792969 423.425781 244.351562 C 424.511719 237.441406 425.855469 230.527344 427.070312 223.617188 C 427.328125 222.335938 427.519531 221.054688 427.710938 219.777344 C 427.839844 218.753906 428.414062 218.304688 429.441406 218.304688 C 431.808594 218.304688 434.113281 218.304688 436.480469 218.304688 C 437.503906 218.304688 437.886719 218.753906 437.695312 219.777344 C 437.246094 223.039062 436.800781 226.238281 436.351562 229.503906 C 435.265625 236.863281 434.175781 244.222656 433.089844 251.585938 C 432.703125 253.953125 432.191406 256.257812 431.808594 258.625 C 431.742188 259.007812 431.550781 259.519531 432.0625 259.710938 C 432.574219 259.902344 432.832031 259.457031 433.089844 259.136719 C 433.921875 258.238281 434.6875 257.34375 435.519531 256.511719 C 437.824219 254.015625 440.640625 252.609375 444.03125 253.503906 C 447.617188 254.464844 449.40625 257.34375 450.433594 260.734375 C 452.03125 265.921875 451.585938 271.167969 450.816406 276.351562 C 449.40625 286.078125 447.9375 295.808594 446.59375 305.535156 C 446.398438 307.007812 445.761719 307.648438 444.351562 307.648438 C 442.816406 307.710938 441.40625 307.839844 440 307.96875 Z M 440 307.96875 "/>
<path style=" stroke:none;fill-rule:nonzero;fill:rgb(11.372549%,11.372549%,10.588235%);fill-opacity:1;" d="M 162.625 307.710938 C 163.199219 297.472656 167.871094 289.726562 174.59375 283.070312 C 177.855469 279.871094 181.503906 277.246094 185.664062 275.328125 C 189.441406 273.472656 191.167969 269.375 189.886719 265.34375 C 189.183594 263.230469 187.136719 262.335938 184.960938 263.359375 C 181.886719 264.832031 180.160156 267.457031 179.007812 270.464844 C 177.40625 274.6875 177.40625 274.6875 172.863281 274.6875 C 171.519531 274.6875 170.175781 274.6875 168.832031 274.753906 C 167.742188 274.816406 167.230469 274.304688 167.550781 273.214844 C 170.175781 264.128906 174.527344 256.128906 183.167969 251.648438 C 189.441406 248.382812 197.246094 249.472656 200.449219 257.921875 C 202.046875 262.144531 201.855469 266.238281 201.089844 270.527344 C 199.808594 277.632812 198.527344 284.734375 197.695312 291.902344 C 197.3125 295.230469 196.542969 298.558594 196.542969 301.953125 C 196.542969 303.296875 196.542969 304.640625 197.246094 305.921875 C 198.078125 307.457031 199.105469 307.777344 200.703125 306.945312 C 201.601562 306.496094 202.367188 305.855469 203.007812 305.152344 C 204.03125 304.128906 204.929688 304.511719 205.886719 305.214844 C 207.039062 305.984375 206.398438 306.753906 206.015625 307.457031 C 205.121094 308.992188 204.289062 310.527344 203.328125 312 C 200.894531 315.839844 197.121094 317.503906 192.640625 316.671875 C 190.59375 316.289062 189.183594 314.945312 188.222656 313.089844 C 187.648438 312 187.070312 310.847656 186.625 309.695312 C 186.238281 308.800781 185.855469 308.929688 185.28125 309.441406 C 184.257812 310.273438 183.425781 311.230469 182.59375 312.257812 C 180.414062 314.878906 177.921875 316.929688 174.59375 317.886719 C 168.511719 319.679688 163.519531 316.414062 162.816406 310.144531 C 162.625 309.183594 162.625 308.222656 162.625 307.710938 Z M 173.632812 302.273438 C 173.566406 305.855469 175.742188 307.328125 178.433594 305.921875 C 181.761719 304.257812 184.191406 301.566406 185.28125 298.046875 C 186.6875 293.566406 187.070312 288.894531 187.710938 284.222656 C 187.777344 283.902344 187.902344 283.519531 187.519531 283.390625 C 187.070312 283.199219 186.878906 283.648438 186.625 283.839844 C 182.910156 286.65625 179.902344 290.175781 177.214844 293.953125 C 175.359375 296.574219 174.078125 299.519531 173.632812 302.273438 Z M 173.632812 302.273438 "/>
<path style=" stroke:none;fill-rule:nonzero;fill:rgb(11.372549%,11.372549%,10.588235%);fill-opacity:1;" d="M 332.03125 271.425781 C 331.902344 281.921875 329.726562 291.265625 324.480469 299.710938 C 321.792969 304.0625 318.335938 307.710938 313.152344 309.183594 C 306.304688 311.167969 299.390625 308.222656 296.191406 301.824219 C 293.761719 296.960938 292.929688 291.777344 293.121094 286.398438 C 293.566406 275.328125 296.640625 265.214844 303.742188 256.574219 C 305.792969 254.078125 308.351562 252.03125 311.488281 250.945312 C 317.566406 248.769531 323.265625 250.6875 327.296875 256.0625 C 330.816406 260.800781 331.710938 266.367188 332.03125 271.425781 Z M 319.871094 273.664062 C 319.871094 272.382812 319.9375 271.039062 319.871094 269.761719 C 319.742188 268.03125 319.488281 266.367188 318.785156 264.769531 C 317.441406 261.886719 315.136719 261.3125 312.640625 263.296875 C 310.273438 265.152344 308.734375 267.648438 307.585938 270.335938 C 304.703125 276.929688 303.871094 283.839844 304.191406 290.945312 C 304.257812 292.414062 304.511719 293.953125 305.089844 295.359375 C 306.433594 298.625 309.375 299.390625 312.128906 297.152344 C 314.113281 295.550781 315.457031 293.503906 316.542969 291.199219 C 319.105469 285.632812 319.871094 279.679688 319.871094 273.664062 Z M 319.871094 273.664062 "/>
<path style=" stroke:none;fill-rule:nonzero;fill:rgb(11.372549%,11.372549%,10.588235%);fill-opacity:1;" d="M 364.992188 266.6875 C 363.777344 266.6875 362.625 266.6875 361.40625 266.6875 C 360.320312 266.6875 359.742188 266.304688 359.617188 265.089844 C 359.359375 262.59375 358.847656 260.160156 357.054688 258.238281 C 354.496094 255.425781 351.617188 255.679688 349.761719 259.007812 C 347.199219 263.425781 348.160156 269.695312 352 273.152344 C 353.601562 274.625 355.328125 275.96875 357.054688 277.3125 C 359.679688 279.488281 361.984375 281.921875 364.03125 284.671875 C 370.816406 293.632812 366.71875 305.984375 355.839844 308.992188 C 351.359375 310.273438 346.816406 310.273438 342.464844 308.929688 C 336.511719 307.136719 333.503906 302.65625 332.289062 296.832031 C 331.777344 294.464844 331.519531 292.097656 331.710938 289.726562 C 331.777344 288.449219 332.222656 287.808594 333.566406 287.808594 C 335.359375 287.808594 337.089844 287.808594 338.878906 287.742188 C 340.222656 287.679688 340.800781 288.257812 340.929688 289.601562 C 341.246094 292.734375 341.886719 295.808594 344.257812 298.175781 C 345.921875 299.902344 347.839844 301.246094 350.464844 300.863281 C 355.136719 300.097656 357.566406 294.335938 354.945312 290.367188 C 353.664062 288.511719 351.871094 287.296875 350.144531 285.953125 C 348.414062 284.609375 346.625 283.390625 344.894531 282.046875 C 337.726562 276.222656 334.785156 265.40625 338.175781 256.894531 C 340.609375 250.816406 345.152344 246.910156 351.808594 246.273438 C 358.847656 245.632812 364.03125 248.832031 367.488281 254.910156 C 369.089844 257.792969 370.046875 260.929688 370.496094 264.191406 C 370.816406 266.367188 370.367188 266.816406 368.257812 266.816406 C 367.230469 266.816406 366.144531 266.816406 365.121094 266.816406 C 364.992188 266.753906 364.992188 266.753906 364.992188 266.6875 Z M 364.992188 266.6875 "/>
<path style=" stroke:none;fill-rule:nonzero;fill:rgb(11.372549%,11.372549%,10.588235%);fill-opacity:1;" d="M 452.992188 288.832031 C 453.121094 281.601562 454.71875 275.777344 456.960938 269.953125 C 459.136719 264.320312 462.144531 259.328125 466.367188 255.039062 C 468.800781 252.609375 471.808594 251.070312 475.199219 250.367188 C 480 249.40625 485.121094 252.542969 486.976562 257.792969 C 488.382812 261.824219 488.769531 265.984375 487.9375 270.273438 C 487.359375 273.472656 485.695312 275.902344 483.136719 277.824219 C 477.824219 281.855469 472 284.992188 465.726562 287.296875 C 464.511719 287.742188 463.9375 288.320312 464.0625 289.664062 C 464.128906 290.816406 464.128906 291.96875 464.382812 293.054688 C 465.023438 295.742188 466.816406 296.894531 469.503906 296.257812 C 472.128906 295.617188 473.984375 293.886719 475.648438 291.96875 C 476.414062 291.070312 477.183594 290.113281 477.695312 289.023438 C 478.207031 288 478.910156 287.550781 480 287.550781 C 481.792969 287.550781 483.519531 287.488281 485.3125 287.425781 C 486.015625 287.425781 486.59375 287.617188 486.335938 288.511719 C 484.289062 296.574219 480.320312 303.488281 472.640625 307.070312 C 465.089844 310.59375 456.128906 307.839844 453.886719 297.34375 C 453.246094 294.273438 453.121094 291.070312 452.992188 288.832031 Z M 478.207031 265.664062 C 478.144531 265.023438 478.144531 264.320312 478.015625 263.679688 C 477.695312 261.375 476.480469 260.671875 474.238281 261.566406 C 473.152344 262.015625 472.257812 262.71875 471.488281 263.550781 C 467.710938 267.519531 466.113281 272.449219 465.152344 277.695312 C 465.089844 278.078125 464.832031 278.59375 465.214844 278.847656 C 465.601562 279.167969 465.984375 278.71875 466.367188 278.527344 C 469.503906 276.671875 472.511719 274.6875 475.265625 272.257812 C 477.375 270.527344 478.335938 268.351562 478.207031 265.664062 Z M 478.207031 265.664062 "/>
<path style=" stroke:none;fill-rule:nonzero;fill:rgb(11.372549%,11.372549%,10.588235%);fill-opacity:1;" d="M 229.824219 251.839844 C 231.167969 251.839844 232.511719 251.839844 233.855469 251.839844 C 234.878906 251.839844 235.457031 252.160156 235.199219 253.3125 C 234.816406 255.105469 234.496094 256.894531 234.046875 258.625 C 233.855469 259.519531 233.152344 259.777344 232.257812 259.777344 C 229.953125 259.777344 227.648438 259.902344 225.40625 259.902344 C 224.320312 259.902344 223.808594 260.351562 223.550781 261.503906 C 222.078125 268.097656 221.503906 274.878906 220.351562 281.535156 C 219.777344 285.054688 219.390625 288.574219 219.136719 292.097656 C 219.007812 293.503906 219.136719 294.910156 219.390625 296.320312 C 219.902344 298.878906 221.695312 299.585938 223.808594 298.046875 C 224.960938 297.214844 225.984375 296.257812 227.136719 295.488281 C 227.710938 295.039062 228.351562 294.273438 229.183594 294.847656 C 230.015625 295.425781 230.398438 296.320312 230.144531 297.34375 C 229.121094 301.183594 228.160156 305.023438 225.34375 308.03125 C 223.617188 309.886719 221.824219 311.742188 219.519531 312.894531 C 215.230469 315.007812 211.136719 313.28125 209.535156 308.734375 C 207.679688 303.617188 207.742188 298.367188 208.191406 292.992188 C 209.089844 283.007812 210.6875 273.152344 212.03125 263.296875 C 212.097656 262.910156 212.097656 262.527344 212.160156 262.207031 C 212.609375 260.671875 211.839844 260.351562 210.496094 260.414062 C 208.449219 260.542969 206.464844 260.480469 204.414062 260.542969 C 203.070312 260.609375 202.433594 260.097656 202.753906 258.6875 C 203.070312 257.023438 203.390625 255.425781 203.648438 253.761719 C 203.777344 252.863281 204.289062 252.609375 205.183594 252.609375 C 207.296875 252.609375 209.472656 252.542969 211.585938 252.542969 C 212.992188 252.542969 213.761719 251.96875 213.953125 250.496094 C 214.71875 244.800781 215.679688 239.105469 216.449219 233.34375 C 216.640625 232.128906 217.089844 231.425781 218.433594 231.167969 C 220.542969 230.785156 222.464844 229.886719 224.257812 228.671875 C 225.152344 228.097656 225.984375 227.265625 227.070312 227.96875 C 228.160156 228.609375 227.902344 229.824219 227.777344 230.847656 C 226.816406 237.246094 225.855469 243.585938 224.894531 249.984375 C 224.574219 251.902344 224.640625 251.96875 226.496094 251.96875 C 227.648438 251.96875 228.800781 251.96875 229.953125 251.96875 C 229.824219 251.96875 229.824219 251.902344 229.824219 251.839844 Z M 229.824219 251.839844 "/>
<path style=" stroke:none;fill-rule:nonzero;fill:rgb(11.372549%,11.372549%,10.588235%);fill-opacity:1;" d="M 560.894531 308.542969 C 554.496094 308.800781 549.632812 306.238281 546.816406 300.480469 C 545.089844 296.960938 545.34375 293.183594 546.367188 289.535156 C 546.558594 288.894531 546.945312 288.449219 547.710938 288.449219 C 547.839844 288.449219 548.03125 288.449219 548.160156 288.449219 C 549.695312 288.449219 551.550781 288 552.769531 288.640625 C 553.984375 289.28125 553.664062 291.328125 553.984375 292.800781 C 554.816406 296 556.097656 298.625 559.550781 299.710938 C 563.199219 300.863281 567.359375 298.433594 568 294.71875 C 568.191406 293.441406 567.9375 292.222656 567.167969 291.199219 C 565.824219 289.40625 564.289062 287.9375 562.496094 286.65625 C 558.847656 284.03125 555.519531 281.089844 552.703125 277.566406 C 550.398438 274.753906 549.054688 271.550781 549.054688 267.839844 C 549.054688 263.617188 549.054688 259.328125 551.550781 255.617188 C 554.945312 250.433594 559.871094 248.191406 566.078125 248.511719 C 569.664062 248.703125 573.054688 249.472656 575.808594 252.097656 C 579.96875 256.191406 581.183594 261.183594 580.222656 266.816406 C 580.097656 267.585938 579.519531 267.777344 578.878906 267.902344 C 576.894531 268.414062 574.847656 268.160156 572.800781 268.160156 C 571.902344 268.160156 571.902344 267.457031 571.839844 266.816406 C 571.648438 265.472656 571.902344 264.0625 571.390625 262.785156 C 571.136719 262.078125 570.878906 261.375 570.433594 260.863281 C 569.089844 259.070312 567.488281 257.664062 565.054688 258.046875 C 562.6875 258.433594 561.472656 260.097656 560.894531 262.335938 C 560.128906 265.152344 560.894531 267.777344 561.984375 270.335938 C 563.585938 273.855469 566.464844 276.289062 569.34375 278.65625 C 573.566406 282.046875 577.40625 285.824219 578.558594 291.390625 C 580.480469 300.351562 575.617188 306.304688 567.679688 308.03125 C 565.503906 308.414062 563.199219 308.734375 560.894531 308.542969 Z M 560.894531 308.542969 "/>
</g>
</svg>
